<?xml version="1.0" encoding="us-ascii" standalone="no"?><svg xmlns="http://www.w3.org/2000/svg" xmlns:xlink="http://www.w3.org/1999/xlink" contentStyleType="text/css" height="1183px" preserveAspectRatio="none" style="width:993px;height:1183px;background:#FFFFFF;" version="1.1" viewBox="0 0 993 1183" width="993px" zoomAndPan="magnify"><defs/><g><text fill="#000000" font-family="sans-serif" font-size="14" font-weight="bold" lengthAdjust="spacing" textLength="282" x="348.5" y="23.5352">Facial Expression Analysis Architecture</text><!--cluster Input Module--><g id="cluster_Input Module"><rect fill="none" height="113.97" rx="2.5" ry="2.5" style="stroke:#181818;stroke-width:1.0;" width="346" x="327" y="144.4783"/><text fill="#000000" font-family="sans-serif" font-size="14" font-weight="bold" lengthAdjust="spacing" textLength="96" x="452" y="160.0134">Input Module</text></g><!--cluster Preprocessing Module--><g id="cluster_Preprocessing Module"><rect fill="none" height="203.98" rx="2.5" ry="2.5" style="stroke:#181818;stroke-width:1.0;" width="240" x="380" y="282.4483"/><text fill="#000000" font-family="sans-serif" font-size="14" font-weight="bold" lengthAdjust="spacing" textLength="159" x="420.5" y="297.9834">Preprocessing Module</text></g><!--cluster Landmark Detection--><g id="cluster_Landmark Detection"><rect fill="none" height="113.98" rx="2.5" ry="2.5" style="stroke:#181818;stroke-width:1.0;" width="262" x="369" y="510.4283"/><text fill="#000000" font-family="sans-serif" font-size="14" font-weight="bold" lengthAdjust="spacing" textLength="145" x="427.5" y="525.9634">Landmark Detection</text></g><!--cluster Feature Extraction--><g id="cluster_Feature Extraction"><rect fill="none" height="113.97" rx="2.5" ry="2.5" style="stroke:#181818;stroke-width:1.0;" width="980" x="7" y="648.4083"/><text fill="#000000" font-family="sans-serif" font-size="14" font-weight="bold" lengthAdjust="spacing" textLength="130" x="432" y="663.9434">Feature Extraction</text></g><!--cluster Inference Module--><g id="cluster_Inference Module"><rect fill="none" height="253.44" rx="2.5" ry="2.5" style="stroke:#181818;stroke-width:1.0;" width="262" x="369" y="786.3783"/><text fill="#000000" font-family="sans-serif" font-size="14" font-weight="bold" lengthAdjust="spacing" textLength="124" x="438" y="801.9134">Inference Module</text></g><!--cluster Output Module--><g id="cluster_Output Module"><rect fill="none" height="113.98" rx="2.5" ry="2.5" style="stroke:#181818;stroke-width:1.0;" width="484" x="274" y="1063.8183"/><text fill="#000000" font-family="sans-serif" font-size="14" font-weight="bold" lengthAdjust="spacing" textLength="109" x="461.5" y="1079.3534">Output Module</text></g><!--entity Video Feed\n(Webcam/File)--><g id="elem_Video Feed\n(Webcam/File)"><rect fill="#F1F1F1" height="62.9766" rx="2.5" ry="2.5" style="stroke:#181818;stroke-width:0.5;" width="138" x="343" y="179.4783"/><rect fill="#F1F1F1" height="10" style="stroke:#181818;stroke-width:0.5;" width="15" x="461" y="184.4783"/><rect fill="#F1F1F1" height="2" style="stroke:#181818;stroke-width:0.5;" width="4" x="459" y="186.4783"/><rect fill="#F1F1F1" height="2" style="stroke:#181818;stroke-width:0.5;" width="4" x="459" y="190.4783"/><text fill="#000000" font-family="sans-serif" font-size="14" lengthAdjust="spacing" textLength="76" x="358" y="213.0134">Video Feed</text><text fill="#000000" font-family="sans-serif" font-size="14" lengthAdjust="spacing" textLength="98" x="358" y="229.5017">(Webcam/File)</text></g><!--entity Image Capture--><g id="elem_Image Capture"><rect fill="#F1F1F1" height="46.4883" rx="2.5" ry="2.5" style="stroke:#181818;stroke-width:0.5;" width="141" x="516.5" y="187.7183"/><rect fill="#F1F1F1" height="10" style="stroke:#181818;stroke-width:0.5;" width="15" x="637.5" y="192.7183"/><rect fill="#F1F1F1" height="2" style="stroke:#181818;stroke-width:0.5;" width="4" x="635.5" y="194.7183"/><rect fill="#F1F1F1" height="2" style="stroke:#181818;stroke-width:0.5;" width="4" x="635.5" y="198.7183"/><text fill="#000000" font-family="sans-serif" font-size="14" lengthAdjust="spacing" textLength="101" x="531.5" y="221.2534">Image Capture</text></g><!--entity Frame Resize/Normalize--><g id="elem_Frame Resize/Normalize"><rect fill="#F1F1F1" height="46.4883" rx="2.5" ry="2.5" style="stroke:#181818;stroke-width:0.5;" width="208" x="396" y="317.4483"/><rect fill="#F1F1F1" height="10" style="stroke:#181818;stroke-width:0.5;" width="15" x="584" y="322.4483"/><rect fill="#F1F1F1" height="2" style="stroke:#181818;stroke-width:0.5;" width="4" x="582" y="324.4483"/><rect fill="#F1F1F1" height="2" style="stroke:#181818;stroke-width:0.5;" width="4" x="582" y="328.4483"/><text fill="#000000" font-family="sans-serif" font-size="14" lengthAdjust="spacing" textLength="168" x="411" y="350.9834">Frame Resize/Normalize</text></g><!--entity Face Detection--><g id="elem_Face Detection"><rect fill="#F1F1F1" height="46.4883" rx="2.5" ry="2.5" style="stroke:#181818;stroke-width:0.5;" width="140" x="430" y="423.9383"/><rect fill="#F1F1F1" height="10" style="stroke:#181818;stroke-width:0.5;" width="15" x="550" y="428.9383"/><rect fill="#F1F1F1" height="2" style="stroke:#181818;stroke-width:0.5;" width="4" x="548" y="430.9383"/><rect fill="#F1F1F1" height="2" style="stroke:#181818;stroke-width:0.5;" width="4" x="548" y="434.9383"/><text fill="#000000" font-family="sans-serif" font-size="14" lengthAdjust="spacing" textLength="100" x="445" y="457.4734">Face Detection</text></g><!--entity Facial Landmarks\n(MediaPipe/Dlib/OpenFace)--><g id="elem_Facial Landmarks\n(MediaPipe/Dlib/OpenFace)"><rect fill="#F1F1F1" height="62.9766" rx="2.5" ry="2.5" style="stroke:#181818;stroke-width:0.5;" width="229" x="385.5" y="545.4283"/><rect fill="#F1F1F1" height="10" style="stroke:#181818;stroke-width:0.5;" width="15" x="594.5" y="550.4283"/><rect fill="#F1F1F1" height="2" style="stroke:#181818;stroke-width:0.5;" width="4" x="592.5" y="552.4283"/><rect fill="#F1F1F1" height="2" style="stroke:#181818;stroke-width:0.5;" width="4" x="592.5" y="556.4283"/><text fill="#000000" font-family="sans-serif" font-size="14" lengthAdjust="spacing" textLength="118" x="400.5" y="578.9634">Facial Landmarks</text><text fill="#000000" font-family="sans-serif" font-size="14" lengthAdjust="spacing" textLength="189" x="400.5" y="595.4517">(MediaPipe/Dlib/OpenFace)</text></g><!--entity Gaze Estimation--><g id="elem_Gaze Estimation"><rect fill="#F1F1F1" height="46.4883" rx="2.5" ry="2.5" style="stroke:#181818;stroke-width:0.5;" width="150" x="23" y="691.6483"/><rect fill="#F1F1F1" height="10" style="stroke:#181818;stroke-width:0.5;" width="15" x="153" y="696.6483"/><rect fill="#F1F1F1" height="2" style="stroke:#181818;stroke-width:0.5;" width="4" x="151" y="698.6483"/><rect fill="#F1F1F1" height="2" style="stroke:#181818;stroke-width:0.5;" width="4" x="151" y="702.6483"/><text fill="#000000" font-family="sans-serif" font-size="14" lengthAdjust="spacing" textLength="110" x="38" y="725.1834">Gaze Estimation</text></g><!--entity Head Pose Estimation--><g id="elem_Head Pose Estimation"><rect fill="#F1F1F1" height="46.4883" rx="2.5" ry="2.5" style="stroke:#181818;stroke-width:0.5;" width="187" x="207.5" y="691.6483"/><rect fill="#F1F1F1" height="10" style="stroke:#181818;stroke-width:0.5;" width="15" x="374.5" y="696.6483"/><rect fill="#F1F1F1" height="2" style="stroke:#181818;stroke-width:0.5;" width="4" x="372.5" y="698.6483"/><rect fill="#F1F1F1" height="2" style="stroke:#181818;stroke-width:0.5;" width="4" x="372.5" y="702.6483"/><text fill="#000000" font-family="sans-serif" font-size="14" lengthAdjust="spacing" textLength="147" x="222.5" y="725.1834">Head Pose Estimation</text></g><!--entity Blink Detection--><g id="elem_Blink Detection"><rect fill="#F1F1F1" height="46.4883" rx="2.5" ry="2.5" style="stroke:#181818;stroke-width:0.5;" width="142" x="429" y="691.6483"/><rect fill="#F1F1F1" height="10" style="stroke:#181818;stroke-width:0.5;" width="15" x="551" y="696.6483"/><rect fill="#F1F1F1" height="2" style="stroke:#181818;stroke-width:0.5;" width="4" x="549" y="698.6483"/><rect fill="#F1F1F1" height="2" style="stroke:#181818;stroke-width:0.5;" width="4" x="549" y="702.6483"/><text fill="#000000" font-family="sans-serif" font-size="14" lengthAdjust="spacing" textLength="102" x="444" y="725.1834">Blink Detection</text></g><!--entity Action Units (AUs)--><g id="elem_Action Units (AUs)"><rect fill="#F1F1F1" height="46.4883" rx="2.5" ry="2.5" style="stroke:#181818;stroke-width:0.5;" width="164" x="606" y="691.6483"/><rect fill="#F1F1F1" height="10" style="stroke:#181818;stroke-width:0.5;" width="15" x="750" y="696.6483"/><rect fill="#F1F1F1" height="2" style="stroke:#181818;stroke-width:0.5;" width="4" x="748" y="698.6483"/><rect fill="#F1F1F1" height="2" style="stroke:#181818;stroke-width:0.5;" width="4" x="748" y="702.6483"/><text fill="#000000" font-family="sans-serif" font-size="14" lengthAdjust="spacing" textLength="124" x="621" y="725.1834">Action Units (AUs)</text></g><!--entity Emotion Detection\n(DeepFace/FER+)--><g id="elem_Emotion Detection\n(DeepFace/FER+)"><rect fill="#F1F1F1" height="62.9766" rx="2.5" ry="2.5" style="stroke:#181818;stroke-width:0.5;" width="166" x="805" y="683.4083"/><rect fill="#F1F1F1" height="10" style="stroke:#181818;stroke-width:0.5;" width="15" x="951" y="688.4083"/><rect fill="#F1F1F1" height="2" style="stroke:#181818;stroke-width:0.5;" width="4" x="949" y="690.4083"/><rect fill="#F1F1F1" height="2" style="stroke:#181818;stroke-width:0.5;" width="4" x="949" y="694.4083"/><text fill="#000000" font-family="sans-serif" font-size="14" lengthAdjust="spacing" textLength="126" x="820" y="716.9434">Emotion Detection</text><text fill="#000000" font-family="sans-serif" font-size="14" lengthAdjust="spacing" textLength="119" x="820" y="733.4317">(DeepFace/FER+)</text></g><!--entity ML/DL Classifier\n(SVM, RandomForest, LSTM)--><g id="elem_ML/DL Classifier\n(SVM, RandomForest, LSTM)"><rect fill="#F1F1F1" height="62.9766" rx="2.5" ry="2.5" style="stroke:#181818;stroke-width:0.5;" width="231" x="384.5" y="821.3783"/><rect fill="#F1F1F1" height="10" style="stroke:#181818;stroke-width:0.5;" width="15" x="595.5" y="826.3783"/><rect fill="#F1F1F1" height="2" style="stroke:#181818;stroke-width:0.5;" width="4" x="593.5" y="828.3783"/><rect fill="#F1F1F1" height="2" style="stroke:#181818;stroke-width:0.5;" width="4" x="593.5" y="832.3783"/><text fill="#000000" font-family="sans-serif" font-size="14" lengthAdjust="spacing" textLength="110" x="399.5" y="854.9134">ML/DL Classifier</text><text fill="#000000" font-family="sans-serif" font-size="14" lengthAdjust="spacing" textLength="191" x="399.5" y="871.4017">(SVM, RandomForest, LSTM)</text></g><!--entity Score Aggregator\n(Confidence, Engagement,\nNervousness, Authenticity)--><g id="elem_Score Aggregator\n(Confidence, Engagement,\nNervousness, Authenticity)"><rect fill="#F1F1F1" height="79.4648" rx="2.5" ry="2.5" style="stroke:#181818;stroke-width:0.5;" width="222" x="389" y="944.3583"/><rect fill="#F1F1F1" height="10" style="stroke:#181818;stroke-width:0.5;" width="15" x="591" y="949.3583"/><rect fill="#F1F1F1" height="2" style="stroke:#181818;stroke-width:0.5;" width="4" x="589" y="951.3583"/><rect fill="#F1F1F1" height="2" style="stroke:#181818;stroke-width:0.5;" width="4" x="589" y="955.3583"/><text fill="#000000" font-family="sans-serif" font-size="14" lengthAdjust="spacing" textLength="121" x="404" y="977.8934">Score Aggregator</text><text fill="#000000" font-family="sans-serif" font-size="14" lengthAdjust="spacing" textLength="181" x="404" y="994.3817">(Confidence, Engagement,</text><text fill="#000000" font-family="sans-serif" font-size="14" lengthAdjust="spacing" textLength="182" x="404" y="1010.87">Nervousness, Authenticity)</text></g><!--entity Live Overlay\n(OpenCV)--><g id="elem_Live Overlay\n(OpenCV)"><rect fill="#F1F1F1" height="62.9766" rx="2.5" ry="2.5" style="stroke:#181818;stroke-width:0.5;" width="121" x="290.5" y="1098.8183"/><rect fill="#F1F1F1" height="10" style="stroke:#181818;stroke-width:0.5;" width="15" x="391.5" y="1103.8183"/><rect fill="#F1F1F1" height="2" style="stroke:#181818;stroke-width:0.5;" width="4" x="389.5" y="1105.8183"/><rect fill="#F1F1F1" height="2" style="stroke:#181818;stroke-width:0.5;" width="4" x="389.5" y="1109.8183"/><text fill="#000000" font-family="sans-serif" font-size="14" lengthAdjust="spacing" textLength="81" x="305.5" y="1132.3534">Live Overlay</text><text fill="#000000" font-family="sans-serif" font-size="14" lengthAdjust="spacing" textLength="66" x="305.5" y="1148.8417">(OpenCV)</text></g><!--entity Text Logs--><g id="elem_Text Logs"><rect fill="#F1F1F1" height="46.4883" rx="2.5" ry="2.5" style="stroke:#181818;stroke-width:0.5;" width="107" x="446.5" y="1107.0683"/><rect fill="#F1F1F1" height="10" style="stroke:#181818;stroke-width:0.5;" width="15" x="533.5" y="1112.0683"/><rect fill="#F1F1F1" height="2" style="stroke:#181818;stroke-width:0.5;" width="4" x="531.5" y="1114.0683"/><rect fill="#F1F1F1" height="2" style="stroke:#181818;stroke-width:0.5;" width="4" x="531.5" y="1118.0683"/><text fill="#000000" font-family="sans-serif" font-size="14" lengthAdjust="spacing" textLength="67" x="461.5" y="1140.6034">Text Logs</text></g><!--entity Web Dashboard\n(Streamlit/Flask)--><g id="elem_Web Dashboard\n(Streamlit/Flask)"><rect fill="#F1F1F1" height="62.9766" rx="2.5" ry="2.5" style="stroke:#181818;stroke-width:0.5;" width="153" x="588.5" y="1098.8183"/><rect fill="#F1F1F1" height="10" style="stroke:#181818;stroke-width:0.5;" width="15" x="721.5" y="1103.8183"/><rect fill="#F1F1F1" height="2" style="stroke:#181818;stroke-width:0.5;" width="4" x="719.5" y="1105.8183"/><rect fill="#F1F1F1" height="2" style="stroke:#181818;stroke-width:0.5;" width="4" x="719.5" y="1109.8183"/><text fill="#000000" font-family="sans-serif" font-size="14" lengthAdjust="spacing" textLength="108" x="603.5" y="1132.3534">Web Dashboard</text><text fill="#000000" font-family="sans-serif" font-size="14" lengthAdjust="spacing" textLength="113" x="603.5" y="1148.8417">(Streamlit/Flask)</text></g><!--entity User--><g id="elem_User"><ellipse cx="412" cy="51.4883" fill="#F1F1F1" rx="8" ry="8" style="stroke:#181818;stroke-width:0.5;"/><path d="M412,59.4883 L412,86.4883 M399,67.4883 L425,67.4883 M412,86.4883 L399,101.4883 M412,86.4883 L425,101.4883 " fill="none" style="stroke:#181818;stroke-width:0.5;"/><text fill="#000000" font-family="sans-serif" font-size="14" lengthAdjust="spacing" textLength="31" x="396.5" y="116.5234">User</text></g><!--link User to Video Feed\n(Webcam/File)--><g id="link_User_Video Feed\n(Webcam/File)"><path d="M412,119.8583 C412,138.6983 412,155.2283 412,173.0383 " fill="none" id="User-to-Video Feed\n(Webcam/File)" style="stroke:#181818;stroke-width:1.0;"/><polygon fill="#181818" points="412,179.0383,416,170.0383,412,174.0383,408,170.0383,412,179.0383" style="stroke:#181818;stroke-width:1.0;"/></g><!--link Video Feed\n(Webcam/File) to Frame Resize/Normalize--><g id="link_Video Feed\n(Webcam/File)_Frame Resize/Normalize"><path d="M433.3,242.8783 C449.07,265.7683 466.7965,291.497 481.0065,312.127 " fill="none" id="Video Feed\n(Webcam/File)-to-Frame Resize/Normalize" style="stroke:#181818;stroke-width:1.0;"/><polygon fill="#181818" points="484.41,317.0683,482.5988,307.3874,481.5737,312.9506,476.0105,311.9254,484.41,317.0683" style="stroke:#181818;stroke-width:1.0;"/></g><!--link Image Capture to Frame Resize/Normalize--><g id="link_Image Capture_Frame Resize/Normalize"><path d="M571.65,234.5083 C555.74,257.8483 534.4287,289.16 518.5787,312.42 " fill="none" id="Image Capture-to-Frame Resize/Normalize" style="stroke:#181818;stroke-width:1.0;"/><polygon fill="#181818" points="515.2,317.3783,523.5736,312.1933,518.0156,313.2464,516.9625,307.6884,515.2,317.3783" style="stroke:#181818;stroke-width:1.0;"/></g><!--link Frame Resize/Normalize to Face Detection--><g id="link_Frame Resize/Normalize_Face Detection"><path d="M500,364.3683 C500,381.8983 500,400.0383 500,417.5583 " fill="none" id="Frame Resize/Normalize-to-Face Detection" style="stroke:#181818;stroke-width:1.0;"/><polygon fill="#181818" points="500,423.5583,504,414.5583,500,418.5583,496,414.5583,500,423.5583" style="stroke:#181818;stroke-width:1.0;"/></g><!--link Face Detection to Facial Landmarks\n(MediaPipe/Dlib/OpenFace)--><g id="link_Face Detection_Facial Landmarks\n(MediaPipe/Dlib/OpenFace)"><path d="M500,470.7283 C500,491.3483 500,516.0583 500,538.9783 " fill="none" id="Face Detection-to-Facial Landmarks\n(MediaPipe/Dlib/OpenFace)" style="stroke:#181818;stroke-width:1.0;"/><polygon fill="#181818" points="500,544.9783,504,535.9783,500,539.9783,496,535.9783,500,544.9783" style="stroke:#181818;stroke-width:1.0;"/></g><!--link Facial Landmarks\n(MediaPipe/Dlib/OpenFace) to Gaze Estimation--><g id="link_Facial Landmarks\n(MediaPipe/Dlib/OpenFace)_Gaze Estimation"><path d="M385.11,587.9283 C324.85,596.3783 251.07,611.9183 190,640.4083 C163.14,652.9383 141.5322,670.7076 124.0822,687.3476 " fill="none" id="Facial Landmarks\n(MediaPipe/Dlib/OpenFace)-to-Gaze Estimation" style="stroke:#181818;stroke-width:1.0;"/><polygon fill="#181818" points="119.74,691.4883,129.0138,688.1721,123.3585,688.0377,123.4929,682.3825,119.74,691.4883" style="stroke:#181818;stroke-width:1.0;"/></g><!--link Facial Landmarks\n(MediaPipe/Dlib/OpenFace) to Head Pose Estimation--><g id="link_Facial Landmarks\n(MediaPipe/Dlib/OpenFace)_Head Pose Estimation"><path d="M454.84,608.7683 C418.15,633.8483 372.1839,665.2532 339.1539,687.8232 " fill="none" id="Facial Landmarks\n(MediaPipe/Dlib/OpenFace)-to-Head Pose Estimation" style="stroke:#181818;stroke-width:1.0;"/><polygon fill="#181818" points="334.2,691.2083,343.8876,689.4332,338.3283,688.3874,339.3741,682.828,334.2,691.2083" style="stroke:#181818;stroke-width:1.0;"/></g><!--link Facial Landmarks\n(MediaPipe/Dlib/OpenFace) to Blink Detection--><g id="link_Facial Landmarks\n(MediaPipe/Dlib/OpenFace)_Blink Detection"><path d="M500,608.7683 C500,633.8483 500,662.6383 500,685.2083 " fill="none" id="Facial Landmarks\n(MediaPipe/Dlib/OpenFace)-to-Blink Detection" style="stroke:#181818;stroke-width:1.0;"/><polygon fill="#181818" points="500,691.2083,504,682.2083,500,686.2083,496,682.2083,500,691.2083" style="stroke:#181818;stroke-width:1.0;"/></g><!--link Facial Landmarks\n(MediaPipe/Dlib/OpenFace) to Action Units (AUs)--><g id="link_Facial Landmarks\n(MediaPipe/Dlib/OpenFace)_Action Units (AUs)"><path d="M543.52,608.6083 C557.73,618.6883 573.57,629.9783 588,640.4083 C611.4,657.3083 632.8743,673.0828 652.6343,687.6828 " fill="none" id="Facial Landmarks\n(MediaPipe/Dlib/OpenFace)-to-Action Units (AUs)" style="stroke:#181818;stroke-width:1.0;"/><polygon fill="#181818" points="657.46,691.2483,652.5985,682.6829,653.4386,688.277,647.8445,689.1171,657.46,691.2483" style="stroke:#181818;stroke-width:1.0;"/></g><!--link Facial Landmarks\n(MediaPipe/Dlib/OpenFace) to Emotion Detection\n(DeepFace/FER+)--><g id="link_Facial Landmarks\n(MediaPipe/Dlib/OpenFace)_Emotion Detection\n(DeepFace/FER+)"><path d="M614.95,591.5283 C669.14,600.7583 733.67,615.8983 788,640.4083 C811.76,651.1183 830.7504,664.336 849.0804,679.286 " fill="none" id="Facial Landmarks\n(MediaPipe/Dlib/OpenFace)-to-Emotion Detection\n(DeepFace/FER+)" style="stroke:#181818;stroke-width:1.0;"/><polygon fill="#181818" points="853.73,683.0783,849.2837,674.2902,849.8553,679.9181,844.2274,680.4897,853.73,683.0783" style="stroke:#181818;stroke-width:1.0;"/></g><!--link Gaze Estimation to ML/DL Classifier\n(SVM, RandomForest, LSTM)--><g id="link_Gaze Estimation_ML/DL Classifier\n(SVM, RandomForest, LSTM)"><path d="M130.9,738.4183 C147.95,749.2783 169.45,761.7883 190,770.3783 C252.13,796.3483 318.929,814.6394 378.279,828.1194 " fill="none" id="Gaze Estimation-to-ML/DL Classifier\n(SVM, RandomForest, LSTM)" style="stroke:#181818;stroke-width:1.0;"/><polygon fill="#181818" points="384.13,829.4483,376.2395,823.5543,379.2542,828.3409,374.4676,831.3556,384.13,829.4483" style="stroke:#181818;stroke-width:1.0;"/></g><!--link Head Pose Estimation to ML/DL Classifier\n(SVM, RandomForest, LSTM)--><g id="link_Head Pose Estimation_ML/DL Classifier\n(SVM, RandomForest, LSTM)"><path d="M333.86,738.3483 C366.87,760.8983 413.0261,792.4432 449.8461,817.6032 " fill="none" id="Head Pose Estimation-to-ML/DL Classifier\n(SVM, RandomForest, LSTM)" style="stroke:#181818;stroke-width:1.0;"/><polygon fill="#181818" points="454.8,820.9883,449.6259,812.608,450.6718,818.1674,445.1124,819.2132,454.8,820.9883" style="stroke:#181818;stroke-width:1.0;"/></g><!--link Blink Detection to ML/DL Classifier\n(SVM, RandomForest, LSTM)--><g id="link_Blink Detection_ML/DL Classifier\n(SVM, RandomForest, LSTM)"><path d="M500,738.3483 C500,760.8983 500,789.8283 500,814.9883 " fill="none" id="Blink Detection-to-ML/DL Classifier\n(SVM, RandomForest, LSTM)" style="stroke:#181818;stroke-width:1.0;"/><polygon fill="#181818" points="500,820.9883,504,811.9883,500,815.9883,496,811.9883,500,820.9883" style="stroke:#181818;stroke-width:1.0;"/></g><!--link Action Units (AUs) to ML/DL Classifier\n(SVM, RandomForest, LSTM)--><g id="link_Action Units (AUs)_ML/DL Classifier\n(SVM, RandomForest, LSTM)"><path d="M656.96,738.3483 C625.77,760.8983 582.3413,792.3116 547.5613,817.4716 " fill="none" id="Action Units (AUs)-to-ML/DL Classifier\n(SVM, RandomForest, LSTM)" style="stroke:#181818;stroke-width:1.0;"/><polygon fill="#181818" points="542.7,820.9883,552.3365,818.9541,546.7511,818.0577,547.6475,812.4723,542.7,820.9883" style="stroke:#181818;stroke-width:1.0;"/></g><!--link Emotion Detection\n(DeepFace/FER+) to ML/DL Classifier\n(SVM, RandomForest, LSTM)--><g id="link_Emotion Detection\n(DeepFace/FER+)_ML/DL Classifier\n(SVM, RandomForest, LSTM)"><path d="M836.4,746.8583 C821.15,755.2183 804.2,763.7683 788,770.3783 C732.79,792.8983 675.0193,810.1078 621.6693,823.8878 " fill="none" id="Emotion Detection\n(DeepFace/FER+)-to-ML/DL Classifier\n(SVM, RandomForest, LSTM)" style="stroke:#181818;stroke-width:1.0;"/><polygon fill="#181818" points="615.86,825.3883,625.5744,827.0104,620.7011,824.1378,623.5737,819.2646,615.86,825.3883" style="stroke:#181818;stroke-width:1.0;"/></g><!--link ML/DL Classifier\n(SVM, RandomForest, LSTM) to Score Aggregator\n(Confidence, Engagement,\nNervousness, Authenticity)--><g id="link_ML/DL Classifier\n(SVM, RandomForest, LSTM)_Score Aggregator\n(Confidence, Engagement,\nNervousness, Authenticity)"><path d="M500,884.8183 C500,902.5883 500,919.0783 500,938.0483 " fill="none" id="ML/DL Classifier\n(SVM, RandomForest, LSTM)-to-Score Aggregator\n(Confidence, Engagement,\nNervousness, Authenticity)" style="stroke:#181818;stroke-width:1.0;"/><polygon fill="#181818" points="500,944.0483,504,935.0483,500,939.0483,496,935.0483,500,944.0483" style="stroke:#181818;stroke-width:1.0;"/></g><!--link Score Aggregator\n(Confidence, Engagement,\nNervousness, Authenticity) to Live Overlay\n(OpenCV)--><g id="link_Score Aggregator\n(Confidence, Engagement,\nNervousness, Authenticity)_Live Overlay\n(OpenCV)"><path d="M459.68,1024.1183 C435.55,1047.4783 409.6212,1072.5753 387.1712,1094.3053 " fill="none" id="Score Aggregator\n(Confidence, Engagement,\nNervousness, Authenticity)-to-Live Overlay\n(OpenCV)" style="stroke:#181818;stroke-width:1.0;"/><polygon fill="#181818" points="382.86,1098.4783,392.1088,1095.093,386.4527,1095.0008,386.5449,1089.3447,382.86,1098.4783" style="stroke:#181818;stroke-width:1.0;"/></g><!--link Score Aggregator\n(Confidence, Engagement,\nNervousness, Authenticity) to Text Logs--><g id="link_Score Aggregator\n(Confidence, Engagement,\nNervousness, Authenticity)_Text Logs"><path d="M500,1024.1183 C500,1050.6483 500,1078.7983 500,1100.8683 " fill="none" id="Score Aggregator\n(Confidence, Engagement,\nNervousness, Authenticity)-to-Text Logs" style="stroke:#181818;stroke-width:1.0;"/><polygon fill="#181818" points="500,1106.8683,504,1097.8683,500,1101.8683,496,1097.8683,500,1106.8683" style="stroke:#181818;stroke-width:1.0;"/></g><!--link Score Aggregator\n(Confidence, Engagement,\nNervousness, Authenticity) to Web Dashboard\n(Streamlit/Flask)--><g id="link_Score Aggregator\n(Confidence, Engagement,\nNervousness, Authenticity)_Web Dashboard\n(Streamlit/Flask)"><path d="M544.65,1024.1183 C571.37,1047.4783 600.3425,1072.7996 625.2025,1094.5296 " fill="none" id="Score Aggregator\n(Confidence, Engagement,\nNervousness, Authenticity)-to-Web Dashboard\n(Streamlit/Flask)" style="stroke:#181818;stroke-width:1.0;"/><polygon fill="#181818" points="629.72,1098.4783,625.5762,1089.5436,625.9554,1095.1877,620.3113,1095.5669,629.72,1098.4783" style="stroke:#181818;stroke-width:1.0;"/></g><!--SRC=[hPJHRjem58RlynH7lMerghp1f0p8XXGAWj9ThBqu98TWuTYHxQ3IQU- -4z9sa023YBla-FZpxz-_xOIJ12760YNqNtD3rWgj850eDrPO24oy58vYLnZoF8oTDZ2pP3pFS15LojDl1Yel70nrKaYwWTyUmAydaP26a2XvLhS_QHvZveT2qjrBEJh8C2NeObvYNxm_UxIneTpek5IYqdrgQ30Zc90LR-G_Q9EXvAyjalT0qADIAc-WpenG9HcQrR-E3sArzOznosg7b0WSYvpydXHpVvIJAk5tTMP8MCfdsvp1NUPtVEEgTIB3IWlNVX0cCDQsCV1D2hNQ5SwrOFi9CoMSXTjWPYlN-fdUrZ-RMMoFA2_L-M5_ygKXSQ0MP4YnCtis3YE_5q5N8bky46IOCtqQTc32BkWir9m2ru5e-ZYi5fx6N88WJGsbo0dW_gvM2pvYHdUWhr8-peoKwpoh1p9hNLZ5nzU1e71BBejOk4r3tAXmZTX4OaqmMfEHkE5LIk-xJvM8Htfr4EdKRlyuKj13kvnhD6N4fiuGPb8uF-HjhQh5og32_VtNat4yCLRDFHQwMefFDtl7HjwdrT9RBtnsdH_MYxehVYEuBHY7Wzu2rBWOBHY7Bb8Bp3aNpskuLyszwAuTTgyDgEvU6yO1zzfWpd2l1TQxgBrQu5hlsBL0bQfZRzvrLzbvFgyB_lzB_1S0]--></g></svg>